<?xml version="1.0" encoding="UTF-8"?>
<svg xmlns="http://www.w3.org/2000/svg" viewBox="0 0 512 512">
    <defs>
        <style>
            .cls-1 {
            fill: #fff;
            }

            .cls-2 {
            fill: #6cf;
            }

            .cls-3 {
            fill: #09f;
            }

            .cls-4 {
            fill: none;
            }

            .cls-5 {
            fill: #cce0ff;
            opacity: .5;
            }

            .cls-6 {
            fill: #9df;
            }
        </style>
    </defs>
    <g id="foreground">
        <path class="cls-5"
              d="M255.02,168.26l-93.67,226.92h-46.72L227.07,137.83c3.4-7.69,11.01-12.65,19.42-12.65h26.87c8.4,0,16,4.95,19.41,12.62l110.34,248.73c1.63,3.67-1.06,7.79-5.07,7.79h-36.04c-2.25,0-4.27-1.36-5.13-3.44l-91.61-222.6c-1.88-4.57-8.34-4.58-10.25-.03Z"/>
        <path class="cls-1"
              d="M252.11,165.94l-94.52,226.07h-46.72L224.16,135.51c3.4-7.69,11.01-12.65,19.42-12.65h26.87c8.4,0,16,4.95,19.41,12.62l110.34,248.73c1.63,3.67-1.06,7.79-5.07,7.79h-36.04c-2.25,0-4.27-1.36-5.13-3.44l-91.61-222.6c-1.88-4.57-8.34-4.58-10.25-.03Z"/>
        <path class="cls-3"
              d="M256,338.73c-29.43-50.38-102.74-93.68-145.13-95.21-5.98-.22-9.6,7.84-.48,10.2,54.39,14.06,98.27,59.43,118.77,104.11l26.83-19.1Z"/>
        <g>
            <path class="cls-6"
                  d="M110.87,392c46.96-98.16,153.77-147.7,268.3-180.12,8.58-2.43,13.57,10.14,5.33,13.42-94.58,37.6-187.23,77.94-226.91,166.7"/>
            <path class="cls-2"
                  d="M110.87,392c46.96-98.16,153.77-147.7,268.3-180.12,8.58-2.43,13.1,9.04,4.87,12.32-94.58,37.6-188.09,79.04-227.78,167.8h-45.39Z"/>
        </g>
        <g>
            <path class="cls-6"
                  d="M230.19,341.12c33.44-50.74,94.82-80.21,158.78-106.06,5.69-2.3,9.9,6.39,4.63,8.96-59.31,28.88-107.2,58.25-130.76,113.97-2.59,6.12-8.44,10.29-15.13,10.8h0c-14.75,1.13-25.59-15.43-17.52-27.67Z"/>
            <path class="cls-2"
                  d="M230.4,340.78c33.44-50.74,93.92-82.25,158.78-105.8,5.35-1.94,8.67,5.71,3.55,8.18-59.15,28.59-106.72,58.61-130.76,113.97-2.65,6.09-8.44,10.29-15.13,10.8h0c-14.75,1.13-24.51-14.91-16.44-27.16Z"/>
        </g>
    </g>
</svg>