<?xml version="1.0" encoding="UTF-8"?>
<svg id="logo" xmlns="http://www.w3.org/2000/svg" viewBox="0 0 512 512">
  <defs>
    <style>
      .cls-1 {
        fill: #000b1c;
      }

      .cls-2 {
        fill: none;
      }

      .cls-3 {
        fill: #5eb8cf;
      }
    </style>
  </defs>
  <g id="foreground">
    <path class="cls-1" d="M252.85,165.57l-94.52,226.07h-46.72L224.91,135.14c3.4-7.69,11.01-12.65,19.42-12.65h26.87c8.4,0,16,4.95,19.41,12.62l110.34,248.73c1.63,3.67-1.06,7.79-5.07,7.79h-36.04c-2.25,0-4.27-1.36-5.13-3.44l-91.61-222.6c-1.88-4.57-8.34-4.58-10.25-.03Z"/>
    <path class="cls-3" d="M384.78,223.84c-94.58,37.6-173.72,79.04-213.4,167.8,0,0,0,0,0,0h-59.76c46.96-98.16,153.77-147.7,268.3-180.12,8.58-2.43,13.1,9.04,4.87,12.32Z"/>
    <path class="cls-3" d="M231.08,340.57c32.76-50.45,92.09-81.74,155.72-105.1,5.24-1.93,8.51,5.69,3.5,8.14-58.02,28.38-104.67,58.2-128.21,113.26-2.59,6.06-8.27,10.23-14.84,10.73h0c-14.47,1.11-24.07-14.86-16.16-27.04Z"/>
  </g>
  <rect class="cls-2" width="512" height="512"/>
</svg>